<svg width="31" height="30" viewBox="0 0 31 30" fill="none" xmlns="http://www.w3.org/2000/svg">
<path d="M20.6041 26C16.2175 26 12.2728 24.1881 9.39745 21.3134C6.52213 18.4387 4.72266 14.5076 4.72266 10.122C4.72266 9.2 5.1325 8.37409 5.77288 7.81067L8.27678 5.42896C8.55214 5.16006 8.92356 5 9.33341 5C9.86492 5 10.3324 5.2689 10.6078 5.67866L13.1501 9.23201C13.3294 9.48171 13.4319 9.78902 13.4319 10.122C13.4319 10.5765 13.2269 10.9927 12.9131 11.2744L10.8767 13.0671C10.595 13.3488 10.358 13.7457 10.358 14.2195C10.3516 15.3463 11.1905 16.8957 12.5097 18.2146C13.8289 19.5335 15.3786 20.3723 16.5057 20.3659C16.9732 20.3659 17.3766 20.129 17.6584 19.8473L19.4578 17.8177C19.7396 17.4976 20.1495 17.2991 20.6105 17.2991C20.9435 17.2991 21.2445 17.4015 21.5007 17.5808L25.0548 20.1226C25.4646 20.3979 25.7336 20.8652 25.7336 21.3966C25.7336 21.8064 25.5735 22.1777 25.3109 22.453L22.9287 24.9564C22.3524 25.5902 21.5263 26 20.6041 26Z" stroke="#393246" stroke-width="1.5" stroke-miterlimit="10"/>
</svg>
